<mxfile host="65bd71144e" pages="4">
    <diagram name="class Supplier" id="edf60f1a-56cd-e834-aa8a-f176f3a09ee4">
        <mxGraphModel dx="3815" dy="3895" grid="1" gridSize="10" guides="1" tooltips="1" connect="1" arrows="1" fold="1" page="1" pageScale="1" pageWidth="1100" pageHeight="850" background="#DAD2D8" math="0" shadow="1">
            <root>
                <mxCell id="0"/>
                <mxCell id="1" parent="0"/>
                <mxCell id="ekk3zo_unMke56bc-vDB-21" value="c" style="shape=parallelogram;html=1;strokeWidth=2;perimeter=parallelogramPerimeter;whiteSpace=wrap;rounded=1;arcSize=12;size=0.23;fillColor=#dae8fc;strokeColor=#6c8ebf;shadow=0;aspect=fixed;fontSize=18;" parent="1" vertex="1">
                    <mxGeometry x="560" y="60" width="300" height="150" as="geometry"/>
                </mxCell>
                <mxCell id="ekk3zo_unMke56bc-vDB-23" value="" style="group" parent="1" vertex="1" connectable="0">
                    <mxGeometry x="60" y="73" width="360" height="705" as="geometry"/>
                </mxCell>
                <mxCell id="ekk3zo_unMke56bc-vDB-22" value="&lt;h1&gt;&amp;lt;supplier&amp;gt;.json&lt;/h1&gt;&lt;p&gt;Lorem ipsum dolor sit amet, consectetur adipisicing elit, sed do eiusmod tempor incididunt ut labore et dolore magna aliqua.&lt;/p&gt;" style="text;html=1;spacing=5;spacingTop=-20;whiteSpace=wrap;overflow=hidden;rounded=0;sketch=0;fillColor=#f5f5f5;fontColor=#333333;strokeColor=#666666;" parent="ekk3zo_unMke56bc-vDB-23" vertex="1">
                    <mxGeometry width="360" height="705" as="geometry"/>
                </mxCell>
                <mxCell id="ekk3zo_unMke56bc-vDB-20" value="" style="strokeWidth=2;html=1;shape=mxgraph.flowchart.document2;whiteSpace=wrap;size=0.25;rounded=1;fillColor=#dae8fc;strokeColor=#6c8ebf;" parent="ekk3zo_unMke56bc-vDB-23" vertex="1">
                    <mxGeometry x="47.36842105263159" y="187.00090909090906" width="265.2631578947368" height="363.1818181818182" as="geometry"/>
                </mxCell>
                <mxCell id="ekk3zo_unMke56bc-vDB-29" value="p" style="shape=parallelogram;html=1;strokeWidth=2;perimeter=parallelogramPerimeter;whiteSpace=wrap;rounded=1;arcSize=12;size=0.23;fillColor=#dae8fc;strokeColor=#6c8ebf;fontSize=18;" parent="1" vertex="1">
                    <mxGeometry x="560" y="235" width="300" height="150" as="geometry"/>
                </mxCell>
                <mxCell id="ekk3zo_unMke56bc-vDB-30" value="d" style="shape=parallelogram;html=1;strokeWidth=2;perimeter=parallelogramPerimeter;whiteSpace=wrap;rounded=1;arcSize=12;size=0.23;fillColor=#dae8fc;strokeColor=#6c8ebf;fontSize=18;" parent="1" vertex="1">
                    <mxGeometry x="560" y="410" width="300" height="150" as="geometry"/>
                </mxCell>
                <mxCell id="ekk3zo_unMke56bc-vDB-31" value="driver" style="shape=parallelogram;html=1;strokeWidth=2;perimeter=parallelogramPerimeter;whiteSpace=wrap;rounded=1;arcSize=12;size=0.23;fillColor=#dae8fc;strokeColor=#6c8ebf;fontSize=18;" parent="1" vertex="1">
                    <mxGeometry x="560" y="590" width="300" height="150" as="geometry"/>
                </mxCell>
                <mxCell id="gRubWgJmse4o6Z_lIU4u-2" value="&lt;table&gt;&lt;tbody&gt;&lt;tr&gt;&lt;td&gt;&lt;br&gt;&lt;/td&gt;&lt;td&gt;&lt;br&gt;&lt;/td&gt;&lt;/tr&gt;&lt;tr&gt;&lt;td&gt;&lt;br&gt;&lt;/td&gt;&lt;td&gt;&lt;br&gt;&lt;/td&gt;&lt;/tr&gt;&lt;tr&gt;&lt;td&gt;&lt;br&gt;&lt;/td&gt;&lt;td&gt;&lt;br&gt;&lt;/td&gt;&lt;/tr&gt;&lt;/tbody&gt;&lt;/table&gt;" style="verticalLabelPosition=bottom;verticalAlign=top;html=1;shape=process;whiteSpace=wrap;rounded=1;size=0.14;arcSize=6;fillColor=#d5e8d4;strokeColor=#82b366;fontSize=48;" parent="1" vertex="1">
                    <mxGeometry x="180" y="-660" width="520" height="350" as="geometry"/>
                </mxCell>
                <mxCell id="gRubWgJmse4o6Z_lIU4u-7" value="related_functions" style="shape=parallelogram;html=1;strokeWidth=2;perimeter=parallelogramPerimeter;whiteSpace=wrap;rounded=1;arcSize=12;size=0.23;fillColor=#dae8fc;strokeColor=#6c8ebf;shadow=0;aspect=fixed;fontSize=18;" parent="1" vertex="1">
                    <mxGeometry x="550" y="790" width="300" height="150" as="geometry"/>
                </mxCell>
                <mxCell id="gRubWgJmse4o6Z_lIU4u-8" value="export_file_name" style="shape=parallelogram;html=1;strokeWidth=2;perimeter=parallelogramPerimeter;whiteSpace=wrap;rounded=1;arcSize=12;size=0.23;fillColor=#dae8fc;strokeColor=#6c8ebf;shadow=0;aspect=fixed;fontSize=18;" parent="1" vertex="1">
                    <mxGeometry x="550" y="1000" width="300" height="150" as="geometry"/>
                </mxCell>
                <mxCell id="gRubWgJmse4o6Z_lIU4u-9" value="current_nodename" style="shape=parallelogram;html=1;strokeWidth=2;perimeter=parallelogramPerimeter;whiteSpace=wrap;rounded=1;arcSize=12;size=0.23;fillColor=#dae8fc;strokeColor=#6c8ebf;shadow=0;aspect=fixed;fontSize=18;" parent="1" vertex="1">
                    <mxGeometry x="540" y="1430" width="300" height="150" as="geometry"/>
                </mxCell>
                <mxCell id="gRubWgJmse4o6Z_lIU4u-10" value="current_nodename" style="shape=parallelogram;html=1;strokeWidth=2;perimeter=parallelogramPerimeter;whiteSpace=wrap;rounded=1;arcSize=12;size=0.23;fillColor=#dae8fc;strokeColor=#6c8ebf;shadow=0;aspect=fixed;fontSize=18;" parent="1" vertex="1">
                    <mxGeometry x="540" y="1630" width="300" height="150" as="geometry"/>
                </mxCell>
                <mxCell id="gRubWgJmse4o6Z_lIU4u-11" value="current_node" style="shape=parallelogram;html=1;strokeWidth=2;perimeter=parallelogramPerimeter;whiteSpace=wrap;rounded=1;arcSize=12;size=0.23;fillColor=#dae8fc;strokeColor=#6c8ebf;shadow=0;aspect=fixed;fontSize=18;" parent="1" vertex="1">
                    <mxGeometry x="540" y="1220" width="300" height="150" as="geometry"/>
                </mxCell>
                <mxCell id="gRubWgJmse4o6Z_lIU4u-12" value="&lt;table&gt;&lt;tbody&gt;&lt;tr&gt;&lt;td style=&quot;border: 1px solid rgb(204, 0, 0); border-collapse: collapse;&quot; border=&quot;1&quot;&gt;__attrs_post_init__&lt;/td&gt;&lt;td&gt;&lt;br&gt;&lt;/td&gt;&lt;td&gt;&lt;br&gt;&lt;/td&gt;&lt;/tr&gt;&lt;tr&gt;&lt;td&gt;&lt;br&gt;&lt;/td&gt;&lt;td&gt;&lt;br&gt;&lt;/td&gt;&lt;td&gt;&lt;br&gt;&lt;/td&gt;&lt;/tr&gt;&lt;/tbody&gt;&lt;/table&gt;" style="rounded=1;whiteSpace=wrap;html=1;absoluteArcSize=1;arcSize=14;strokeWidth=2;fontSize=18;" parent="1" vertex="1">
                    <mxGeometry x="830" y="-630" width="490" height="330" as="geometry"/>
                </mxCell>
            </root>
        </mxGraphModel>
    </diagram>
    <diagram name="class Driver" id="ysdDV4_WqvMWStNbYexU">
        <mxGraphModel dx="763" dy="1709" grid="1" gridSize="10" guides="1" tooltips="1" connect="1" arrows="1" fold="1" page="1" pageScale="1" pageWidth="850" pageHeight="1100" background="#E1EDD4" math="0" shadow="1">
            <root>
                <mxCell id="ObKBtXxkil_jg0MMg40D-0"/>
                <mxCell id="ObKBtXxkil_jg0MMg40D-1" parent="ObKBtXxkil_jg0MMg40D-0"/>
                <mxCell id="kFt157m3q0Afi2noqqad-6" value="" style="group" parent="ObKBtXxkil_jg0MMg40D-1" vertex="1" connectable="0">
                    <mxGeometry x="680" y="-450" width="640" height="440" as="geometry"/>
                </mxCell>
                <mxCell id="ObKBtXxkil_jg0MMg40D-15" value="&lt;table&gt;&lt;tbody&gt;&lt;tr&gt;&lt;td style=&quot;border: 1px solid rgb(204, 0, 0); border-collapse: collapse;&quot; border=&quot;1&quot;&gt;__attrs_post_init__&lt;/td&gt;&lt;td&gt;&lt;br&gt;&lt;/td&gt;&lt;td&gt;&lt;br&gt;&lt;/td&gt;&lt;/tr&gt;&lt;tr&gt;&lt;td&gt;&lt;br&gt;&lt;/td&gt;&lt;td&gt;&lt;br&gt;&lt;/td&gt;&lt;td&gt;&lt;br&gt;&lt;/td&gt;&lt;/tr&gt;&lt;/tbody&gt;&lt;/table&gt;" style="rounded=1;whiteSpace=wrap;html=1;absoluteArcSize=1;arcSize=14;strokeWidth=2;fontSize=18;" parent="kFt157m3q0Afi2noqqad-6" vertex="1">
                    <mxGeometry width="640" height="440" as="geometry"/>
                </mxCell>
                <mxCell id="kFt157m3q0Afi2noqqad-0" value="self" style="swimlane;fontStyle=0;childLayout=stackLayout;horizontal=1;startSize=30;horizontalStack=0;resizeParent=1;resizeParentMax=0;resizeLast=0;collapsible=1;marginBottom=0;fillColor=#67AB9F;strokeColor=#6c8ebf;" parent="kFt157m3q0Afi2noqqad-6" vertex="1">
                    <mxGeometry x="40" y="30" width="140" height="120" as="geometry"/>
                </mxCell>
                <mxCell id="kFt157m3q0Afi2noqqad-1" value="cookies_file_path" style="text;strokeColor=#6c8ebf;fillColor=#dae8fc;align=left;verticalAlign=middle;spacingLeft=4;spacingRight=4;overflow=hidden;points=[[0,0.5],[1,0.5]];portConstraint=eastwest;rotatable=0;" parent="kFt157m3q0Afi2noqqad-0" vertex="1">
                    <mxGeometry y="30" width="140" height="30" as="geometry"/>
                </mxCell>
                <mxCell id="kFt157m3q0Afi2noqqad-2" value="Item 2" style="text;strokeColor=none;fillColor=none;align=left;verticalAlign=middle;spacingLeft=4;spacingRight=4;overflow=hidden;points=[[0,0.5],[1,0.5]];portConstraint=eastwest;rotatable=0;" parent="kFt157m3q0Afi2noqqad-0" vertex="1">
                    <mxGeometry y="60" width="140" height="30" as="geometry"/>
                </mxCell>
                <mxCell id="kFt157m3q0Afi2noqqad-3" value="Item 3" style="text;strokeColor=none;fillColor=none;align=left;verticalAlign=middle;spacingLeft=4;spacingRight=4;overflow=hidden;points=[[0,0.5],[1,0.5]];portConstraint=eastwest;rotatable=0;" parent="kFt157m3q0Afi2noqqad-0" vertex="1">
                    <mxGeometry y="90" width="140" height="30" as="geometry"/>
                </mxCell>
                <mxCell id="ObKBtXxkil_jg0MMg40D-3" value="" style="group" parent="ObKBtXxkil_jg0MMg40D-1" vertex="1" connectable="0">
                    <mxGeometry x="60" y="73" width="360" height="705" as="geometry"/>
                </mxCell>
                <mxCell id="ObKBtXxkil_jg0MMg40D-4" value="&lt;h1&gt;&amp;lt;supplier&amp;gt;.json&lt;/h1&gt;&lt;p&gt;Lorem ipsum dolor sit amet, consectetur adipisicing elit, sed do eiusmod tempor incididunt ut labore et dolore magna aliqua.&lt;/p&gt;" style="text;html=1;spacing=5;spacingTop=-20;whiteSpace=wrap;overflow=hidden;rounded=0;sketch=0;fillColor=#f5f5f5;fontColor=#333333;strokeColor=#666666;" parent="ObKBtXxkil_jg0MMg40D-3" vertex="1">
                    <mxGeometry width="360" height="705" as="geometry"/>
                </mxCell>
                <mxCell id="ObKBtXxkil_jg0MMg40D-5" value="" style="strokeWidth=2;html=1;shape=mxgraph.flowchart.document2;whiteSpace=wrap;size=0.25;rounded=1;fillColor=#dae8fc;strokeColor=#6c8ebf;" parent="ObKBtXxkil_jg0MMg40D-3" vertex="1">
                    <mxGeometry x="47.36842105263159" y="187.00090909090906" width="265.2631578947368" height="363.1818181818182" as="geometry"/>
                </mxCell>
                <UserObject label="" link="data:page/id,7iAC8ZQK8H3TLRAQ1f7X" id="pJUMfTUnulbzbIR6mLqb-0">
                    <mxCell style="group;fillColor=#d5e8d4;strokeColor=#82b366;" parent="ObKBtXxkil_jg0MMg40D-1" vertex="1" connectable="0">
                        <mxGeometry x="90" y="-1070" width="1480" height="520" as="geometry"/>
                    </mxCell>
                </UserObject>
                <mxCell id="pJUMfTUnulbzbIR6mLqb-1" value="WD" style="swimlane;startSize=20;horizontal=1;containerType=tree;fontSize=48;rounded=1;shadow=1;arcSize=13;" parent="pJUMfTUnulbzbIR6mLqb-0" vertex="1">
                    <mxGeometry x="1077.2151898734178" width="402.7848101265823" height="492.14285714285717" as="geometry"/>
                </mxCell>
                <mxCell id="pJUMfTUnulbzbIR6mLqb-2" style="edgeStyle=orthogonalEdgeStyle;curved=0;rounded=1;sketch=0;orthogonalLoop=1;jettySize=auto;html=1;fontColor=#143642;strokeColor=#A8201A;fillColor=#FAE5C7;entryX=0;entryY=0.5;entryDx=0;entryDy=0;" parent="pJUMfTUnulbzbIR6mLqb-0" source="pJUMfTUnulbzbIR6mLqb-3" target="pJUMfTUnulbzbIR6mLqb-1" edge="1">
                    <mxGeometry relative="1" as="geometry">
                        <mxPoint x="1095.9493670886075" y="334.2857142857141" as="targetPoint"/>
                    </mxGeometry>
                </mxCell>
                <mxCell id="pJUMfTUnulbzbIR6mLqb-3" value="" style="pointerEvents=1;verticalLabelPosition=bottom;shadow=0;dashed=0;align=center;html=1;verticalAlign=top;shape=mxgraph.electrical.electro-mechanical.selectorSwitch3Position2;elSwitchState=1;rounded=1;sketch=0;fontColor=#143642;strokeColor=#0F8B8D;fillColor=#FAE5C7;flipH=1;" parent="pJUMfTUnulbzbIR6mLqb-0" vertex="1">
                    <mxGeometry x="583.5696202531645" y="235.85714285714286" width="290.379746835443" height="219.14285714285714" as="geometry"/>
                </mxCell>
                <mxCell id="pJUMfTUnulbzbIR6mLqb-4" style="edgeStyle=orthogonalEdgeStyle;curved=0;rounded=1;sketch=0;orthogonalLoop=1;jettySize=auto;html=1;fontColor=#143642;strokeColor=#A8201A;fillColor=#FAE5C7;" parent="pJUMfTUnulbzbIR6mLqb-0" source="pJUMfTUnulbzbIR6mLqb-5" target="pJUMfTUnulbzbIR6mLqb-3" edge="1">
                    <mxGeometry relative="1" as="geometry">
                        <Array as="points">
                            <mxPoint x="693.1645569620251" y="190.35714285714286"/>
                        </Array>
                    </mxGeometry>
                </mxCell>
                <mxCell id="pJUMfTUnulbzbIR6mLqb-5" value="seleniumwire&#10;" style="swimlane;startSize=20;horizontal=1;containerType=tree;fontSize=48;rounded=1;shadow=1;arcSize=13;" parent="pJUMfTUnulbzbIR6mLqb-0" vertex="1">
                    <mxGeometry x="9.367088607594937" y="157.85714285714286" width="299.746835443038" height="65" as="geometry"/>
                </mxCell>
                <mxCell id="pJUMfTUnulbzbIR6mLqb-6" style="edgeStyle=orthogonalEdgeStyle;curved=0;rounded=1;sketch=0;orthogonalLoop=1;jettySize=auto;html=1;fontColor=#143642;strokeColor=#A8201A;fillColor=#FAE5C7;entryX=0.671;entryY=0.494;entryDx=0;entryDy=0;entryPerimeter=0;" parent="pJUMfTUnulbzbIR6mLqb-0" source="pJUMfTUnulbzbIR6mLqb-7" target="pJUMfTUnulbzbIR6mLqb-3" edge="1">
                    <mxGeometry relative="1" as="geometry"/>
                </mxCell>
                <mxCell id="pJUMfTUnulbzbIR6mLqb-7" value="kora" style="swimlane;startSize=20;horizontal=1;containerType=tree;fontSize=48;rounded=1;shadow=1;arcSize=13;" parent="pJUMfTUnulbzbIR6mLqb-0" vertex="1">
                    <mxGeometry y="316.17857142857144" width="318.48101265822777" height="58.5" as="geometry"/>
                </mxCell>
                <mxCell id="pJUMfTUnulbzbIR6mLqb-8" style="edgeStyle=orthogonalEdgeStyle;curved=0;rounded=1;sketch=0;orthogonalLoop=1;jettySize=auto;html=1;entryX=0.655;entryY=1;entryDx=0;entryDy=0;entryPerimeter=0;fontColor=#143642;strokeColor=#A8201A;fillColor=#FAE5C7;" parent="pJUMfTUnulbzbIR6mLqb-0" source="pJUMfTUnulbzbIR6mLqb-9" target="pJUMfTUnulbzbIR6mLqb-3" edge="1">
                    <mxGeometry relative="1" as="geometry"/>
                </mxCell>
                <mxCell id="pJUMfTUnulbzbIR6mLqb-9" value="selenium" style="swimlane;startSize=20;horizontal=1;containerType=tree;fontSize=48;rounded=1;shadow=1;arcSize=13;" parent="pJUMfTUnulbzbIR6mLqb-0" vertex="1">
                    <mxGeometry x="9.367088607594937" y="455" width="299.746835443038" height="65" as="geometry"/>
                </mxCell>
                <mxCell id="kFt157m3q0Afi2noqqad-8" style="edgeStyle=orthogonalEdgeStyle;rounded=0;orthogonalLoop=1;jettySize=auto;html=1;" parent="ObKBtXxkil_jg0MMg40D-1" source="ObKBtXxkil_jg0MMg40D-2" target="kFt157m3q0Afi2noqqad-1" edge="1">
                    <mxGeometry relative="1" as="geometry"/>
                </mxCell>
                <mxCell id="ObKBtXxkil_jg0MMg40D-2" value="cookies_file_path" style="shape=parallelogram;html=1;strokeWidth=2;perimeter=parallelogramPerimeter;whiteSpace=wrap;rounded=1;arcSize=12;size=0.23;fillColor=#dae8fc;strokeColor=#6c8ebf;shadow=0;aspect=fixed;fontSize=18;" parent="ObKBtXxkil_jg0MMg40D-1" vertex="1">
                    <mxGeometry x="20" y="-450" width="300" height="150" as="geometry"/>
                </mxCell>
                <mxCell id="ObKBtXxkil_jg0MMg40D-6" value="cookies" style="shape=parallelogram;html=1;strokeWidth=2;perimeter=parallelogramPerimeter;whiteSpace=wrap;rounded=1;arcSize=12;size=0.23;fillColor=#dae8fc;strokeColor=#6c8ebf;fontSize=18;" parent="ObKBtXxkil_jg0MMg40D-1" vertex="1">
                    <mxGeometry x="880" y="155" width="300" height="150" as="geometry"/>
                </mxCell>
                <mxCell id="ObKBtXxkil_jg0MMg40D-7" value="headers" style="shape=parallelogram;html=1;strokeWidth=2;perimeter=parallelogramPerimeter;whiteSpace=wrap;rounded=1;arcSize=12;size=0.23;fillColor=#dae8fc;strokeColor=#6c8ebf;fontSize=18;" parent="ObKBtXxkil_jg0MMg40D-1" vertex="1">
                    <mxGeometry x="880" y="330" width="300" height="150" as="geometry"/>
                </mxCell>
                <mxCell id="ObKBtXxkil_jg0MMg40D-8" value="driver" style="shape=parallelogram;html=1;strokeWidth=2;perimeter=parallelogramPerimeter;whiteSpace=wrap;rounded=1;arcSize=12;size=0.23;fillColor=#dae8fc;strokeColor=#6c8ebf;fontSize=18;" parent="ObKBtXxkil_jg0MMg40D-1" vertex="1">
                    <mxGeometry x="880" y="510" width="300" height="150" as="geometry"/>
                </mxCell>
                <mxCell id="ObKBtXxkil_jg0MMg40D-10" value="previous_url" style="shape=parallelogram;html=1;strokeWidth=2;perimeter=parallelogramPerimeter;whiteSpace=wrap;rounded=1;arcSize=12;size=0.23;fillColor=#dae8fc;strokeColor=#6c8ebf;shadow=0;aspect=fixed;fontSize=18;" parent="ObKBtXxkil_jg0MMg40D-1" vertex="1">
                    <mxGeometry x="870" y="710" width="300" height="150" as="geometry"/>
                </mxCell>
                <mxCell id="ObKBtXxkil_jg0MMg40D-11" value="current_url" style="shape=parallelogram;html=1;strokeWidth=2;perimeter=parallelogramPerimeter;whiteSpace=wrap;rounded=1;arcSize=12;size=0.23;fillColor=#dae8fc;strokeColor=#6c8ebf;shadow=0;aspect=fixed;fontSize=18;" parent="ObKBtXxkil_jg0MMg40D-1" vertex="1">
                    <mxGeometry x="870" y="920" width="300" height="150" as="geometry"/>
                </mxCell>
                <mxCell id="ObKBtXxkil_jg0MMg40D-12" value="current_nodename" style="shape=parallelogram;html=1;strokeWidth=2;perimeter=parallelogramPerimeter;whiteSpace=wrap;rounded=1;arcSize=12;size=0.23;fillColor=#dae8fc;strokeColor=#6c8ebf;shadow=0;aspect=fixed;fontSize=18;" parent="ObKBtXxkil_jg0MMg40D-1" vertex="1">
                    <mxGeometry x="860" y="1350" width="300" height="150" as="geometry"/>
                </mxCell>
                <mxCell id="ObKBtXxkil_jg0MMg40D-13" value="current_nodename" style="shape=parallelogram;html=1;strokeWidth=2;perimeter=parallelogramPerimeter;whiteSpace=wrap;rounded=1;arcSize=12;size=0.23;fillColor=#dae8fc;strokeColor=#6c8ebf;shadow=0;aspect=fixed;fontSize=18;" parent="ObKBtXxkil_jg0MMg40D-1" vertex="1">
                    <mxGeometry x="860" y="1550" width="300" height="150" as="geometry"/>
                </mxCell>
                <mxCell id="ObKBtXxkil_jg0MMg40D-14" value="current_node" style="shape=parallelogram;html=1;strokeWidth=2;perimeter=parallelogramPerimeter;whiteSpace=wrap;rounded=1;arcSize=12;size=0.23;fillColor=#dae8fc;strokeColor=#6c8ebf;shadow=0;aspect=fixed;fontSize=18;" parent="ObKBtXxkil_jg0MMg40D-1" vertex="1">
                    <mxGeometry x="860" y="1140" width="300" height="150" as="geometry"/>
                </mxCell>
            </root>
        </mxGraphModel>
    </diagram>
    <diagram id="yhTf4TmdZgpS1rNykIqM" name="main">
        <mxGraphModel dx="3052" dy="2436" grid="1" gridSize="10" guides="1" tooltips="1" connect="1" arrows="1" fold="1" page="1" pageScale="1" pageWidth="827" pageHeight="1169" math="0" shadow="0">
            <root>
                <mxCell id="0"/>
                <mxCell id="1" parent="0"/>
            </root>
        </mxGraphModel>
    </diagram>
    <diagram id="7iAC8ZQK8H3TLRAQ1f7X" name="WD">
        <mxGraphModel dx="1590" dy="609" grid="1" gridSize="10" guides="1" tooltips="1" connect="1" arrows="1" fold="1" page="1" pageScale="1" pageWidth="827" pageHeight="1169" math="0" shadow="0">
            <root>
                <mxCell id="0"/>
                <mxCell id="1" parent="0"/>
                <mxCell id="RZP5flqo9xvCFaI_fnCC-2" value="WD" style="swimlane;startSize=20;horizontal=1;containerType=tree;fontSize=48;rounded=1;shadow=1;arcSize=13;" parent="1" vertex="1">
                    <mxGeometry x="250" y="180" width="430" height="530" as="geometry"/>
                </mxCell>
                <mxCell id="nxyVBPn4yPl69uEo1c-U-17" style="edgeStyle=orthogonalEdgeStyle;curved=0;rounded=1;sketch=0;orthogonalLoop=1;jettySize=auto;html=1;fontSize=18;entryX=0;entryY=0.5;entryDx=0;entryDy=0;" parent="1" source="RZP5flqo9xvCFaI_fnCC-4" target="RZP5flqo9xvCFaI_fnCC-2" edge="1">
                    <mxGeometry relative="1" as="geometry">
                        <mxPoint x="260" y="460" as="targetPoint"/>
                    </mxGeometry>
                </mxCell>
                <mxCell id="RZP5flqo9xvCFaI_fnCC-4" value="" style="pointerEvents=1;verticalLabelPosition=bottom;shadow=0;dashed=0;align=center;html=1;verticalAlign=top;shape=mxgraph.electrical.electro-mechanical.selectorSwitch3Position2;elSwitchState=1;rounded=1;sketch=0;fontColor=#143642;strokeColor=#0F8B8D;fillColor=#FAE5C7;flipH=1;" parent="1" vertex="1">
                    <mxGeometry x="-10" y="335" width="210" height="105" as="geometry"/>
                </mxCell>
                <mxCell id="nxyVBPn4yPl69uEo1c-U-16" style="edgeStyle=orthogonalEdgeStyle;curved=0;rounded=1;sketch=0;orthogonalLoop=1;jettySize=auto;html=1;exitX=0.75;exitY=1;exitDx=0;exitDy=0;entryX=0.994;entryY=0.064;entryDx=0;entryDy=0;entryPerimeter=0;fontSize=18;" parent="1" source="RZP5flqo9xvCFaI_fnCC-6" target="RZP5flqo9xvCFaI_fnCC-4" edge="1">
                    <mxGeometry relative="1" as="geometry"/>
                </mxCell>
                <mxCell id="nxyVBPn4yPl69uEo1c-U-15" style="edgeStyle=orthogonalEdgeStyle;curved=0;rounded=1;sketch=0;orthogonalLoop=1;jettySize=auto;html=1;entryX=0.873;entryY=0.502;entryDx=0;entryDy=0;entryPerimeter=0;fontSize=18;" parent="1" source="RZP5flqo9xvCFaI_fnCC-8" target="RZP5flqo9xvCFaI_fnCC-4" edge="1">
                    <mxGeometry relative="1" as="geometry"/>
                </mxCell>
                <mxCell id="nxyVBPn4yPl69uEo1c-U-14" style="edgeStyle=orthogonalEdgeStyle;curved=0;rounded=1;sketch=0;orthogonalLoop=1;jettySize=auto;html=1;entryX=0.679;entryY=0.946;entryDx=0;entryDy=0;entryPerimeter=0;fontSize=18;" parent="1" source="RZP5flqo9xvCFaI_fnCC-10" target="RZP5flqo9xvCFaI_fnCC-4" edge="1">
                    <mxGeometry relative="1" as="geometry">
                        <Array as="points">
                            <mxPoint x="-238" y="882"/>
                        </Array>
                    </mxGeometry>
                </mxCell>
                <mxCell id="nxyVBPn4yPl69uEo1c-U-18" value="" style="group" parent="1" vertex="1" connectable="0">
                    <mxGeometry x="-540" y="215" width="260" height="495" as="geometry"/>
                </mxCell>
                <mxCell id="RZP5flqo9xvCFaI_fnCC-6" value="SWWD" style="swimlane;startSize=20;horizontal=1;containerType=tree;fontSize=48;rounded=1;shadow=1;arcSize=13;" parent="nxyVBPn4yPl69uEo1c-U-18" vertex="1">
                    <mxGeometry x="10" width="250" height="120" as="geometry"/>
                </mxCell>
                <mxCell id="nxyVBPn4yPl69uEo1c-U-10" value="&lt;span style=&quot;font-size: 18px;&quot;&gt;seleniumwire&lt;br&gt;&lt;/span&gt;" style="text;html=1;resizable=0;autosize=1;align=center;verticalAlign=middle;points=[];fillColor=none;strokeColor=none;rounded=0;sketch=0;" parent="RZP5flqo9xvCFaI_fnCC-6" vertex="1">
                    <mxGeometry x="60" y="50" width="130" height="40" as="geometry"/>
                </mxCell>
                <mxCell id="RZP5flqo9xvCFaI_fnCC-8" value="KWD" style="swimlane;startSize=20;horizontal=1;containerType=tree;fontSize=48;rounded=1;shadow=1;arcSize=13;" parent="nxyVBPn4yPl69uEo1c-U-18" vertex="1">
                    <mxGeometry y="205.13" width="250" height="120" as="geometry"/>
                </mxCell>
                <mxCell id="nxyVBPn4yPl69uEo1c-U-11" value="&lt;font style=&quot;font-size: 18px;&quot;&gt;kora&lt;/font&gt;" style="text;html=1;resizable=0;autosize=1;align=center;verticalAlign=middle;points=[];fillColor=none;strokeColor=none;rounded=0;sketch=0;" parent="RZP5flqo9xvCFaI_fnCC-8" vertex="1">
                    <mxGeometry x="95" y="55.370000000000005" width="60" height="40" as="geometry"/>
                </mxCell>
                <mxCell id="RZP5flqo9xvCFaI_fnCC-10" value="SWD" style="swimlane;startSize=20;horizontal=1;containerType=tree;fontSize=48;rounded=1;shadow=1;arcSize=13;" parent="nxyVBPn4yPl69uEo1c-U-18" vertex="1">
                    <mxGeometry x="10" y="350" width="250" height="145" as="geometry"/>
                </mxCell>
                <mxCell id="nxyVBPn4yPl69uEo1c-U-3" value="&lt;font style=&quot;font-size: 18px;&quot;&gt;selenium native&lt;/font&gt;" style="text;html=1;resizable=0;autosize=1;align=center;verticalAlign=middle;points=[];fillColor=none;strokeColor=none;rounded=0;sketch=0;" parent="RZP5flqo9xvCFaI_fnCC-10" vertex="1">
                    <mxGeometry x="50" y="105" width="150" height="40" as="geometry"/>
                </mxCell>
            </root>
        </mxGraphModel>
    </diagram>
</mxfile>